<svg xmlns="http://www.w3.org/2000/svg" xmlns:xlink="http://www.w3.org/1999/xlink" width="500" zoomAndPan="magnify" viewBox="0 0 375 374.999991" height="500" preserveAspectRatio="xMidYMid meet" version="1.0"><defs><g/><clipPath id="d0f5f71f27"><path d="M 48.777344 149.515625 L 326.574219 149.515625 L 326.574219 274.847656 L 48.777344 274.847656 Z M 48.777344 149.515625 " clip-rule="nonzero"/></clipPath><clipPath id="7534609257"><path d="M 326.222656 160.015625 L 326.222656 234.15625 C 326.222656 240.296875 321.96875 245.613281 315.980469 246.960938 L 197.746094 273.53125 C 191 275.046875 184 275.046875 177.253906 273.53125 L 59.019531 246.960938 C 53.03125 245.613281 48.777344 240.296875 48.777344 234.15625 L 48.777344 160.015625 C 48.777344 154.21875 53.476562 149.515625 59.277344 149.515625 L 315.722656 149.515625 C 321.523438 149.515625 326.222656 154.21875 326.222656 160.015625 Z M 326.222656 160.015625 " clip-rule="nonzero"/></clipPath><clipPath id="f6f7a6d285"><path d="M 174 184 L 186 184 L 186 190.667969 L 174 190.667969 Z M 174 184 " clip-rule="nonzero"/></clipPath><clipPath id="47d853a476"><path d="M 48.777344 178 L 326.277344 178 L 326.277344 190.667969 L 48.777344 190.667969 Z M 48.777344 178 " clip-rule="nonzero"/></clipPath><clipPath id="096141a877"><path d="M 48.777344 100 L 326.277344 100 L 326.277344 190.667969 L 48.777344 190.667969 Z M 48.777344 100 " clip-rule="nonzero"/></clipPath><clipPath id="edc50dd708"><path d="M 103.179688 247.019531 L 271.875 247.019531 L 271.875 264.859375 L 103.179688 264.859375 Z M 103.179688 247.019531 " clip-rule="nonzero"/></clipPath><clipPath id="564a39c525"><path d="M 271.820312 247.019531 L 197.746094 263.667969 C 191 265.183594 184 265.183594 177.253906 263.667969 L 103.179688 247.019531 Z M 271.820312 247.019531 " clip-rule="nonzero"/></clipPath><clipPath id="913b14ff84"><path d="M 57.097656 217 L 318.097656 217 L 318.097656 225.996094 L 57.097656 225.996094 Z M 57.097656 217 " clip-rule="nonzero"/></clipPath><clipPath id="5b3a07d9c9"><path d="M 318 216.246094 L 318.097656 216.246094 L 318.097656 225.996094 L 318 225.996094 Z M 318 216.246094 " clip-rule="nonzero"/></clipPath><clipPath id="0e91ec2a2f"><path d="M 182.074219 249.882812 L 192.574219 249.882812 L 192.574219 260.382812 L 182.074219 260.382812 Z M 182.074219 249.882812 " clip-rule="nonzero"/></clipPath><clipPath id="2771ee33db"><path d="M 162.527344 249.882812 L 169.277344 249.882812 L 169.277344 256.632812 L 162.527344 256.632812 Z M 162.527344 249.882812 " clip-rule="nonzero"/></clipPath><clipPath id="8b237221f7"><path d="M 205.5 249.882812 L 212.25 249.882812 L 212.25 256.632812 L 205.5 256.632812 Z M 205.5 249.882812 " clip-rule="nonzero"/></clipPath><clipPath id="8f4dc190e8"><path d="M 179.398438 125.304688 L 186.898438 125.304688 L 186.898438 132.804688 L 179.398438 132.804688 Z M 179.398438 125.304688 " clip-rule="nonzero"/></clipPath><clipPath id="4f8177ceeb"><path d="M 179.398438 129.023438 C 179.398438 131.078125 181.0625 132.742188 183.113281 132.742188 C 185.167969 132.742188 186.832031 131.078125 186.832031 129.023438 C 186.832031 126.96875 185.167969 125.304688 183.113281 125.304688 C 181.0625 125.304688 179.398438 126.96875 179.398438 129.023438 Z M 179.398438 129.023438 " clip-rule="nonzero"/></clipPath><clipPath id="ab6ba56f82"><path d="M 179.398438 126.773438 L 186.898438 126.773438 L 186.898438 134.273438 L 179.398438 134.273438 Z M 179.398438 126.773438 " clip-rule="nonzero"/></clipPath><clipPath id="5c45b5001f"><path d="M 179.398438 130.488281 C 179.398438 132.542969 181.0625 134.207031 183.113281 134.207031 C 185.167969 134.207031 186.832031 132.542969 186.832031 130.488281 C 186.832031 128.4375 185.167969 126.773438 183.113281 126.773438 C 181.0625 126.773438 179.398438 128.4375 179.398438 130.488281 Z M 179.398438 130.488281 " clip-rule="nonzero"/></clipPath></defs><g clip-path="url(#d0f5f71f27)"><g clip-path="url(#7534609257)"><path fill="#000000" d="M 48.777344 149.515625 L 326.078125 149.515625 L 326.078125 275.832031 L 48.777344 275.832031 Z M 48.777344 149.515625 " fill-opacity="1" fill-rule="nonzero"/></g></g><g clip-path="url(#f6f7a6d285)"><path fill="#ffffff" d="M 179.847656 184.773438 L 181.082031 188.59375 L 185.097656 188.582031 L 181.84375 190.941406 L 183.09375 194.757812 L 179.847656 192.390625 L 176.605469 194.757812 L 177.855469 190.941406 L 174.601562 188.582031 L 178.617188 188.59375 Z M 179.847656 184.773438 " fill-opacity="1" fill-rule="evenodd"/></g><g clip-path="url(#47d853a476)"><path fill="#000000" d="M 179.847656 178.324219 C 268.105469 178.324219 339.644531 181.148438 339.644531 184.636719 C 339.644531 188.125 268.101562 190.949219 179.847656 190.949219 C 91.59375 190.949219 20.054688 188.125 20.054688 184.636719 C 20.054688 181.148438 91.597656 178.324219 179.847656 178.324219 Z M 179.847656 178.324219 " fill-opacity="1" fill-rule="evenodd"/></g><g clip-path="url(#096141a877)"><path fill="#000000" d="M 89.265625 127.199219 C 88.9375 125.039062 88.203125 121.566406 85.410156 121.742188 C 82.476562 121.929688 78.796875 123.835938 74.375 127.472656 C 73.753906 128.089844 73.628906 128.96875 73.992188 130.101562 C 65.46875 132.011719 58.660156 134.894531 53.5625 138.769531 C 49.613281 144.195312 48.171875 157.347656 49.230469 178.234375 C 49.835938 178.96875 52.3125 179.507812 56.660156 179.855469 C 58.171875 182.613281 60.46875 184.289062 63.542969 184.886719 C 63.542969 184.886719 91.839844 186.046875 148.429688 188.371094 C 150.628906 189.84375 153.671875 190.59375 157.558594 190.617188 C 175.21875 190.800781 190.539062 190.285156 203.523438 189.070312 C 204.820312 189.101562 208.742188 187.863281 215.285156 185.355469 C 215.285156 185.355469 228.3125 185.09375 254.359375 184.578125 C 264.800781 190.761719 283.5 189.992188 292.664062 181.949219 C 292.664062 181.949219 298.929688 181.714844 311.464844 181.25 C 312.152344 181.238281 312.875 180.855469 313.632812 180.085938 C 313.632812 180.085938 316.210938 179.675781 321.371094 178.847656 C 325.054688 176.675781 326.675781 170.253906 326.246094 159.582031 C 326.140625 157.625 324.816406 156.066406 321.667969 154.613281 C 323.425781 132.960938 322.789062 127.144531 319.898438 122.589844 C 317.785156 120.113281 314.820312 118.980469 300.863281 119.917969 C 272.589844 110.796875 246.433594 104.992188 221.378906 102.582031 C 203.78125 100.890625 166.953125 99.167969 143.675781 101.066406 C 123.023438 102.753906 102.226562 112.710938 89.265625 127.191406 Z M 89.265625 127.199219 " fill-opacity="1" fill-rule="evenodd"/></g><path fill="#b90808" d="M 205.914062 137.988281 C 205.324219 143.019531 205.375 148.859375 206.070312 155.515625 C 206.238281 157.582031 208.09375 158.859375 211.640625 159.34375 C 207.503906 159.757812 204.101562 162.027344 201.425781 166.152344 C 201.425781 166.152344 199.347656 169.796875 195.199219 177.085938 C 192.113281 182.5 186.035156 182.417969 180.070312 182.167969 C 185.761719 181.851562 189.769531 181.257812 192.46875 176.453125 C 193.710938 174.246094 195.871094 170.398438 198.949219 164.914062 C 198.949219 164.914062 191.882812 164.964844 177.75 165.070312 C 178.730469 161.511719 182.183594 159.242188 188.117188 158.261719 C 188.117188 158.261719 193.277344 157.796875 203.59375 156.867188 C 203.277344 155.632812 202.914062 154.136719 202.511719 152.382812 C 202.511719 152.382812 202.511719 149.90625 202.511719 144.953125 L 189.535156 148.359375 C 190.40625 132.015625 193.59375 124.050781 201.582031 121.15625 C 192.972656 122.707031 188.304688 131.949219 187.585938 148.871094 L 174.804688 152.226562 C 174.804688 152.226562 174.394531 154.1875 173.566406 158.109375 C 172.773438 147.164062 164.347656 128.894531 150.859375 132.425781 C 136.324219 136.226562 137.117188 163.21875 138.359375 174.59375 C 136.300781 169.867188 135.0625 162.695312 134.644531 153.082031 C 134.644531 153.082031 133.558594 153.082031 131.398438 153.082031 C 131.398438 153.082031 131.179688 151.6875 130.738281 148.902344 C 116.296875 169.9375 87.820312 171.796875 74.792969 170.726562 C 74.792969 170.726562 76.339844 169.28125 79.4375 166.394531 C 79.4375 166.394531 79.1875 167.125 78.695312 168.589844 C 98.082031 169.132812 115.574219 164.316406 129.09375 144.089844 C 135.03125 135.203125 139.035156 125.316406 138.140625 118.089844 C 137.660156 114.21875 135.746094 111.480469 132.398438 110.570312 C 119.78125 107.132812 99.574219 121.472656 91.976562 130.566406 L 123.945312 129.03125 C 122.75 131.5 121.328125 134.960938 119.675781 139.417969 C 121.820312 135.472656 123.894531 131.980469 125.886719 128.9375 L 130.964844 128.691406 C 130.613281 134.246094 123.644531 143.867188 120.183594 144.003906 L 117.878906 144.101562 C 116.636719 147.75 115.867188 150.394531 115.574219 152.027344 C 115.753906 149.515625 116.144531 146.882812 116.75 144.144531 C 94.160156 145.109375 83.4375 146.410156 76.863281 148.339844 C 77.371094 142.292969 79.042969 137.304688 81.882812 133.375 C 78.390625 136.402344 76.171875 141.25 75.234375 147.917969 C 74.207031 144.152344 72.636719 141.296875 71.277344 139.339844 C 71.277344 139.339844 72.398438 138.480469 73.636719 137.753906 C 71.5625 137.980469 68.820312 138.433594 67.46875 139.265625 C 70.328125 141.753906 72.875 147.945312 74.761719 156.910156 C 74.761719 156.910156 74.011719 158.148438 72.515625 160.625 C 69.359375 147.574219 65.3125 141.460938 60.367188 142.285156 C 55.554688 143.945312 52.644531 149.800781 51.625 159.851562 C 51.808594 153.433594 52.636719 141.757812 59.003906 138.125 C 66.117188 134.0625 76.167969 131.476562 89.152344 130.375 C 108.113281 110.636719 122.945312 104.972656 148.964844 103.855469 C 171.902344 102.867188 201.089844 111.335938 215.605469 116.503906 C 245.519531 119.25 262.574219 121.371094 275.65625 121.140625 C 250.882812 111.894531 223.828125 105.878906 190.34375 104.632812 C 228.148438 103.21875 261.84375 111.871094 297.871094 121.675781 C 298.8125 121.929688 299.757812 122.1875 300.703125 122.445312 C 307.929688 122.175781 313.671875 122.050781 316.109375 123.289062 C 318.027344 124.265625 318.976562 126.335938 319.464844 130.410156 C 320.304688 137.398438 319.304688 147.4375 318.917969 152.78125 C 318.78125 146.621094 318.507812 141.53125 318.125 137.5 C 293.613281 134.097656 259.238281 132.886719 213.175781 135.59375 C 212.214844 135.648438 211.492188 137.015625 212.390625 138.125 C 209.765625 136.75 210.121094 132.414062 213.78125 132.234375 C 255.484375 130.160156 290.132812 130.722656 317.71875 133.917969 C 317.09375 129.253906 316.261719 126.648438 315.292969 126.082031 C 314.675781 125.421875 313.578125 125.054688 308.21875 125.074219 C 286.140625 125.167969 262.011719 124.066406 239.5 122.113281 C 223.472656 120.726562 208.21875 118.394531 205.914062 137.988281 Z M 128.574219 107.960938 C 140.214844 105.410156 146.171875 113.378906 138.558594 130.792969 C 143.363281 114.6875 139.492188 107.496094 128.574219 107.960938 Z M 128.574219 107.960938 " fill-opacity="1" fill-rule="evenodd"/><path fill="#ffffff" d="M 129.09375 144.085938 C 135.03125 135.199219 139.035156 125.3125 138.140625 118.085938 C 137.660156 114.210938 135.746094 111.476562 132.398438 110.566406 C 119.78125 107.128906 99.574219 121.46875 91.976562 130.558594 L 123.945312 129.027344 C 122.832031 131.320312 121.527344 134.484375 120.015625 138.503906 C 120.179688 135.972656 120.175781 134.988281 117.769531 134.976562 C 103.667969 134.921875 91.949219 135.054688 81.949219 135.625 C 81.515625 135.652344 79.226562 138.898438 77.5 143.792969 C 79.03125 136.664062 81.34375 134.117188 81.878906 133.375 C 81.070312 134.074219 80.332031 134.875 79.660156 135.765625 C 73.660156 136.15625 68.410156 136.71875 63.878906 137.507812 C 66.207031 138.378906 68.527344 141.667969 70.0625 145.261719 C 68.210938 141.273438 63.09375 136.820312 58.042969 138.757812 C 58.347656 138.523438 58.664062 138.3125 58.996094 138.121094 C 66.105469 134.058594 76.160156 131.472656 89.144531 130.371094 C 108.105469 110.632812 122.9375 104.96875 148.957031 103.851562 C 171.894531 102.863281 201.082031 111.332031 215.597656 116.5 C 245.511719 119.246094 262.566406 121.367188 275.648438 121.132812 C 250.871094 111.890625 223.820312 105.875 190.335938 104.628906 C 228.140625 103.214844 261.835938 111.867188 297.859375 121.667969 C 298.804688 121.921875 299.746094 122.183594 300.695312 122.441406 C 307.921875 122.171875 313.664062 122.046875 316.097656 123.285156 C 316.679688 123.578125 317.167969 123.972656 317.585938 124.496094 C 316.765625 124.050781 315.667969 123.804688 313.976562 123.660156 C 309.425781 123.269531 302.148438 123.683594 299.027344 123.664062 C 284.6875 123.589844 273.777344 123.230469 265.152344 122.761719 C 254.820312 122.199219 223.449219 117.625 214.734375 121.171875 C 209.726562 123.207031 205.632812 127.816406 203.96875 135.3125 C 205.171875 126.050781 208.898438 122.164062 211.746094 120.675781 C 188.949219 113.050781 163.746094 108.488281 143.609375 109.765625 C 150.03125 129.703125 125.929688 160.445312 99.953125 166.304688 C 109.183594 163.175781 120.910156 156.320312 129.082031 144.085938 Z M 122.054688 135.175781 C 123.359375 132.917969 124.636719 130.839844 125.886719 128.9375 L 130.964844 128.691406 C 130.941406 129.023438 130.898438 129.371094 130.835938 129.730469 C 128.433594 132.132812 125.074219 134.429688 122.058594 135.171875 Z M 128.574219 107.960938 C 140.214844 105.410156 146.171875 113.378906 138.558594 130.792969 C 143.363281 114.6875 139.492188 107.496094 128.574219 107.960938 Z M 128.574219 107.960938 " fill-opacity="1" fill-rule="evenodd"/><path fill="#f6dbbc" d="M 124.320312 126.761719 C 126.59375 123.09375 129.691406 119.484375 133.605469 115.933594 C 131.96875 118.355469 130.835938 120.957031 130.199219 123.746094 C 130.199219 123.746094 132.300781 123.4375 136.503906 122.816406 C 126.9375 126.648438 124.84375 127.449219 124.316406 126.761719 Z M 124.320312 126.761719 " fill-opacity="1" fill-rule="evenodd"/><path fill="#f6dbbc" d="M 86.753906 125.175781 C 86.253906 123.476562 84.96875 123.140625 82.886719 124.167969 C 80.4375 125.375 78.472656 126.75 76.988281 128.292969 C 76.253906 129.058594 76.628906 129.386719 77.304688 130.40625 C 80.089844 130.195312 81.101562 130.125 81.101562 130.125 C 80.386719 129.265625 79.261719 128.605469 80.90625 127.21875 C 82.421875 125.941406 84.839844 123.785156 86.753906 125.171875 Z M 86.753906 125.175781 " fill-opacity="1" fill-rule="evenodd"/><path fill="#b90808" d="M 75.476562 176.613281 C 73.980469 177.542969 73.234375 178.003906 73.234375 178.003906 C 73.234375 178.003906 94 178.03125 135.523438 178.082031 C 136.597656 178.324219 135.851562 177.183594 133.277344 174.675781 C 123.523438 174.191406 104.253906 174.835938 75.472656 176.613281 Z M 75.476562 176.613281 " fill-opacity="1" fill-rule="evenodd"/><path fill="#f6dbbc" d="M 307.199219 168.449219 C 307.035156 165.421875 307.023438 163.382812 307.03125 162.375 C 307.042969 161.3125 307.03125 160.753906 305.613281 160.710938 C 296.535156 160.128906 281.421875 160.03125 260.265625 160.402344 C 260.265625 160.402344 260.222656 163.339844 260.128906 169.222656 C 260.050781 174.722656 250.097656 177.511719 247.804688 170.308594 C 247.804688 170.308594 247.03125 170.359375 245.484375 170.460938 C 245.023438 169.78125 244.761719 168.59375 244.707031 166.902344 C 244.707031 166.902344 244.679688 164.8125 244.632812 160.632812 C 244.632812 160.632812 234.109375 161.921875 213.0625 164.503906 C 211.019531 164.757812 209.34375 165.996094 208.03125 168.21875 C 208.03125 168.21875 206.613281 171.363281 203.777344 177.65625 C 202.695312 179.324219 200.402344 180.226562 196.890625 180.363281 C 197.730469 180.09375 198.527344 179.371094 199.289062 178.195312 C 199.289062 178.195312 200.914062 175 204.167969 168.601562 C 206.003906 165.378906 208.738281 163.210938 212.367188 162.101562 C 217.390625 160.949219 227.703125 159.457031 243.320312 157.617188 C 243.988281 157.65625 244.6875 156.457031 245.40625 154.019531 C 246.324219 152.058594 248.152344 150.722656 250.898438 149.996094 C 246 149.878906 245.277344 149.339844 240.839844 151.542969 C 239.332031 151.738281 238.484375 151.351562 238.285156 150.382812 C 238.285156 150.382812 243.625 146.820312 254.300781 139.703125 C 254.300781 139.703125 250.097656 139.730469 241.6875 139.78125 C 241.6875 139.78125 247.773438 139.109375 259.949219 137.765625 C 259.949219 137.765625 258.269531 141.6875 254.917969 149.527344 C 255.644531 149.617188 256.652344 150.132812 257.933594 151.074219 C 272.585938 151 287.363281 151.074219 302.273438 151.308594 C 302.273438 151.308594 300.210938 147.464844 296.082031 139.777344 C 295.328125 138.792969 296.105469 138.714844 298.40625 139.546875 C 299.476562 140.910156 301.972656 144.445312 305.910156 150.144531 C 305.910156 150.144531 308.285156 150.171875 313.03125 150.222656 C 315.347656 150.535156 316.789062 152.390625 317.363281 155.792969 C 321.105469 157.285156 323.09375 158.65625 323.324219 159.894531 C 323.738281 166.855469 323.171875 171.78125 321.625 174.671875 C 322.082031 170.136719 322.210938 166.679688 322.007812 164.300781 C 320.699219 163.257812 319.203125 162.539062 317.523438 162.132812 C 317.472656 166.03125 317.445312 167.976562 317.445312 167.976562 C 317.277344 175.542969 307.578125 174.992188 307.195312 168.4375 Z M 313.703125 153.164062 C 312.683594 153 312.507812 153.242188 313.183594 153.898438 C 313.941406 154.339844 314.003906 154.601562 313.378906 154.671875 C 310.765625 154.542969 310.707031 160.234375 312.644531 160.285156 C 314.09375 160.664062 313.140625 161.890625 311.957031 161.710938 C 311.113281 161.589844 310.367188 161.183594 309.703125 160.089844 C 309.703125 160.089844 309.703125 161.261719 309.703125 163.609375 C 310.488281 162.742188 311.855469 162.414062 313.347656 162.832031 C 314.335938 163.167969 313.53125 163.722656 313.058594 163.835938 C 311.808594 164.140625 311.242188 165.363281 311.367188 167.515625 C 311.285156 168.820312 311.867188 169.554688 313.109375 169.71875 C 311.605469 170.695312 310.09375 169.433594 309.472656 168.941406 C 309.636719 170.363281 310.351562 171.160156 311.617188 171.34375 C 313.910156 171.597656 315.476562 170.417969 315.699219 167.644531 C 315.699219 168.304688 315.890625 164.542969 315.835938 156.871094 C 315.542969 154.675781 314.828125 153.4375 313.707031 153.15625 Z M 248.4375 165.425781 C 248.859375 166.066406 249.347656 165.734375 249.90625 164.421875 C 250.921875 162.816406 252.753906 162.285156 255.398438 162.832031 C 256.1875 163.679688 256.089844 164.121094 255.089844 164.148438 C 252.726562 163.871094 251.734375 165.292969 252.109375 168.402344 C 252.265625 169.945312 253.21875 170.683594 254.972656 170.609375 C 252.839844 171.503906 250.9375 170.769531 249.25 168.402344 C 249.824219 171.125 251.359375 172.441406 253.851562 172.347656 C 256.316406 172.136719 257.585938 170.417969 257.664062 167.207031 C 257.664062 167.207031 257.863281 164.207031 257.757812 157.9375 C 257.664062 156.269531 257.054688 153.796875 255.050781 153.8125 C 253.808594 153.820312 252.992188 154.273438 252.59375 155.171875 C 251.894531 158.46875 252.628906 160.03125 254.796875 159.851562 C 255.613281 160.4375 255.621094 160.875 254.835938 161.167969 C 250.628906 161.300781 249.765625 160.636719 249.726562 156.914062 C 249.703125 154.554688 251.191406 152.585938 253.8125 152.386719 C 250.964844 151.8125 248.96875 153.265625 248.433594 155.445312 C 248.433594 162.097656 248.433594 165.425781 248.433594 165.425781 Z M 259.613281 154.871094 C 259.804688 155.535156 260.035156 156.398438 260.152344 157.484375 C 273.773438 157.132812 289.070312 157.195312 307.277344 157.65625 C 307.394531 154.472656 308.273438 152.617188 309.90625 152.085938 C 307.691406 152.191406 306.578125 152.242188 306.578125 152.242188 C 307.113281 153.875 306.980469 154.828125 306.191406 155.105469 C 274.777344 154.949219 259.609375 154.871094 259.609375 154.871094 Z M 322.058594 161.328125 C 320.761719 160.398438 319.203125 159.726562 317.378906 159.3125 C 317.378906 159.3125 317.378906 158.851562 317.378906 157.921875 C 320.058594 159.050781 321.621094 160.183594 322.058594 161.328125 Z M 322.058594 161.328125 " fill-opacity="1" fill-rule="evenodd"/><path fill="#f6dbbc" d="M 240.8125 153.335938 C 241.855469 153.675781 242.523438 154.179688 242.816406 154.855469 C 231.320312 156.179688 222.164062 157.378906 215.351562 158.464844 C 212.511719 158.261719 210.652344 157.484375 209.78125 156.140625 C 220.75 154.75 230.375 153.851562 240.816406 153.335938 Z M 240.8125 153.335938 " fill-opacity="1" fill-rule="evenodd"/><path fill="#ffffff" d="M 154.558594 137.285156 C 161.394531 137.285156 166.9375 148.199219 166.9375 161.667969 C 166.9375 175.128906 161.394531 186.046875 154.558594 186.046875 C 147.722656 186.046875 142.179688 175.132812 142.179688 161.667969 C 142.179688 148.203125 147.722656 137.285156 154.558594 137.285156 Z M 143.996094 161.667969 C 143.996094 159.699219 144.460938 154.6875 145.277344 151.734375 C 146.042969 152.804688 149.003906 156.882812 149.359375 158.179688 C 149.605469 159.066406 149.597656 159.738281 149.339844 160.183594 C 149.085938 160.492188 148.636719 160.828125 148.003906 161.195312 C 147.351562 161.566406 143.992188 163.304688 143.992188 161.667969 Z M 144.195312 165.699219 C 144.527344 169.039062 145.269531 172.085938 146.304688 174.644531 C 147.046875 173.234375 148.527344 170.625 150.765625 166.828125 C 150.429688 165.746094 150.226562 164.480469 150.203125 163.128906 C 149.816406 163.1875 147.960938 163.640625 146.394531 164.167969 C 145.191406 164.566406 144.121094 164.925781 144.195312 165.699219 Z M 145.964844 149.574219 L 149.117188 154.609375 L 151.1875 157.730469 C 151.613281 156.78125 152.15625 156.046875 152.773438 155.605469 L 150.476562 144.925781 C 150.183594 143.570312 149.871094 142.980469 149.335938 143.582031 C 148.003906 145.078125 146.851562 147.128906 145.960938 149.574219 Z M 154.085938 157.933594 C 155.460938 157.933594 156.574219 160.128906 156.574219 162.835938 C 156.574219 165.546875 155.460938 167.742188 154.085938 167.742188 C 153.800781 167.742188 153.523438 167.644531 153.265625 167.46875 C 153.3125 167.472656 153.363281 167.476562 153.414062 167.476562 C 154.65625 167.476562 155.664062 165.496094 155.664062 163.046875 C 155.664062 160.597656 154.65625 158.613281 153.414062 158.613281 C 153.121094 158.613281 152.832031 158.726562 152.574219 158.933594 C 152.992188 158.300781 153.519531 157.929688 154.085938 157.929688 Z M 155.710938 155.839844 C 156.335938 156.402344 156.875 157.28125 157.273438 158.371094 L 163.007812 149.199219 C 161.964844 146.457031 160.585938 144.246094 158.992188 142.789062 L 155.714844 155.835938 Z M 163.535156 150.71875 C 161.464844 154.390625 159.976562 156.9375 159.324219 158.046875 C 158.910156 158.75 158.707031 159.964844 159.390625 160.714844 L 165.109375 162.324219 C 165.113281 162.101562 165.113281 161.886719 165.113281 161.664062 C 165.113281 157.644531 164.53125 153.894531 163.527344 150.714844 Z M 165.042969 164.0625 L 158 162.578125 C 158 162.664062 158.003906 162.75 158.003906 162.835938 C 158.003906 164.039062 157.863281 165.171875 157.613281 166.191406 C 159.917969 168.960938 161.875 171.15625 163.484375 172.785156 C 164.3125 170.207031 164.863281 167.246094 165.046875 164.066406 Z M 162.917969 174.367188 C 159.863281 171.089844 158.222656 169.316406 158.222656 169.316406 C 157.414062 168.296875 157.089844 169.296875 157.285156 170.792969 C 157.808594 174.832031 158.136719 178.265625 158.367188 181.066406 C 160.183594 179.683594 161.75 177.347656 162.917969 174.367188 Z M 157.363281 181.714844 C 156.742188 175.996094 156.207031 172.019531 155.757812 169.785156 C 155.253906 170.253906 154.691406 170.515625 154.097656 170.515625 C 153.835938 170.515625 153.582031 170.46875 153.335938 170.371094 L 152.714844 182.148438 C 153.3125 182.355469 153.925781 182.460938 154.558594 182.460938 C 155.53125 182.460938 156.472656 182.203125 157.363281 181.714844 Z M 151.722656 181.703125 C 151.773438 180.207031 151.882812 177.148438 152.050781 172.535156 C 152.09375 171.839844 151.953125 171.257812 151.628906 170.78125 C 151.195312 170.3125 150.738281 170.3125 150.257812 170.78125 L 147.015625 176.214844 C 148.292969 178.785156 149.90625 180.710938 151.722656 181.703125 Z M 151.789062 145.164062 L 153.585938 151.863281 C 154.015625 153.464844 154.800781 153.359375 155.246094 151.90625 L 158.234375 142.167969 C 157.089844 141.328125 155.851562 140.867188 154.550781 140.867188 C 153.582031 140.867188 152.636719 141.125 151.746094 141.609375 C 150.707031 142.171875 151.308594 143.402344 151.78125 145.164062 Z M 151.789062 145.164062 " fill-opacity="1" fill-rule="evenodd"/><path fill="#ffffff" d="M 61.796875 145.839844 C 66.046875 145.839844 69.496094 153.382812 69.496094 162.691406 C 69.496094 172 66.046875 179.542969 61.796875 179.542969 C 57.546875 179.542969 54.101562 172 54.101562 162.691406 C 54.101562 153.382812 57.546875 145.839844 61.796875 145.839844 Z M 55.230469 162.691406 C 55.230469 161.332031 55.519531 157.867188 56.027344 155.824219 C 56.503906 156.5625 58.347656 159.386719 58.566406 160.277344 C 58.71875 160.894531 58.71875 161.359375 58.558594 161.667969 C 58.402344 161.878906 58.125 162.113281 57.722656 162.367188 C 57.316406 162.625 55.230469 163.828125 55.230469 162.691406 Z M 55.351562 165.476562 C 55.5625 167.78125 56.019531 169.890625 56.664062 171.660156 C 57.121094 170.683594 58.046875 168.882812 59.4375 166.257812 C 59.230469 165.503906 59.101562 164.632812 59.089844 163.699219 C 58.847656 163.738281 57.699219 164.054688 56.71875 164.417969 C 55.96875 164.691406 55.300781 164.941406 55.351562 165.476562 Z M 56.453125 154.332031 L 58.414062 157.8125 L 59.703125 159.972656 C 59.96875 159.316406 60.304688 158.808594 60.691406 158.503906 L 59.261719 151.121094 C 59.082031 150.183594 58.890625 149.773438 58.554688 150.191406 C 57.722656 151.226562 57.007812 152.640625 56.453125 154.332031 Z M 61.507812 160.113281 C 62.363281 160.113281 63.054688 161.632812 63.054688 163.5 C 63.054688 165.375 62.359375 166.894531 61.507812 166.894531 C 61.332031 166.894531 61.160156 166.824219 60.996094 166.703125 C 61.027344 166.707031 61.058594 166.710938 61.089844 166.710938 C 61.859375 166.710938 62.492188 165.339844 62.492188 163.648438 C 62.492188 161.957031 61.867188 160.585938 61.089844 160.585938 C 60.902344 160.585938 60.730469 160.664062 60.570312 160.804688 C 60.828125 160.371094 61.152344 160.113281 61.507812 160.113281 Z M 62.519531 158.664062 C 62.910156 159.054688 63.246094 159.65625 63.488281 160.414062 L 67.054688 154.074219 C 66.40625 152.183594 65.550781 150.648438 64.554688 149.640625 L 62.515625 158.660156 Z M 67.386719 155.125 C 66.097656 157.667969 65.171875 159.425781 64.769531 160.191406 C 64.515625 160.679688 64.382812 161.519531 64.8125 162.039062 L 68.371094 163.15625 C 68.371094 163 68.375 162.851562 68.375 162.695312 C 68.375 159.921875 68.015625 157.328125 67.390625 155.125 Z M 68.324219 164.351562 L 63.941406 163.328125 C 63.941406 163.386719 63.941406 163.445312 63.941406 163.503906 C 63.941406 164.335938 63.855469 165.117188 63.703125 165.820312 C 65.136719 167.734375 66.351562 169.253906 67.355469 170.378906 C 67.871094 168.597656 68.210938 166.550781 68.324219 164.351562 Z M 67 171.476562 C 65.101562 169.210938 64.078125 167.984375 64.078125 167.984375 C 63.574219 167.28125 63.371094 167.972656 63.496094 169.011719 C 63.820312 171.800781 64.023438 174.175781 64.171875 176.113281 C 65.300781 175.15625 66.273438 173.542969 67 171.484375 Z M 63.546875 176.558594 C 63.164062 172.601562 62.832031 169.855469 62.550781 168.3125 C 62.238281 168.632812 61.886719 168.816406 61.515625 168.816406 C 61.351562 168.816406 61.195312 168.78125 61.039062 168.714844 L 60.65625 176.851562 C 61.027344 177 61.40625 177.070312 61.796875 177.070312 C 62.402344 177.070312 62.992188 176.890625 63.542969 176.554688 Z M 60.039062 176.550781 C 60.070312 175.515625 60.136719 173.402344 60.242188 170.214844 C 60.273438 169.730469 60.183594 169.328125 59.980469 168.996094 C 59.710938 168.675781 59.425781 168.675781 59.125 168.996094 L 57.109375 172.753906 C 57.90625 174.53125 58.910156 175.859375 60.039062 176.546875 Z M 60.078125 151.292969 L 61.195312 155.925781 C 61.460938 157.03125 61.953125 156.960938 62.230469 155.953125 L 64.089844 149.222656 C 63.375 148.640625 62.605469 148.324219 61.796875 148.324219 C 61.195312 148.324219 60.609375 148.5 60.050781 148.835938 C 59.402344 149.226562 59.78125 150.074219 60.074219 151.292969 Z M 60.078125 151.292969 " fill-opacity="1" fill-rule="evenodd"/><path fill="#ffffff" d="M 163.121094 124.972656 C 167.0625 126.847656 172.089844 134.171875 173.375 143.410156 C 167.933594 126.976562 152.425781 121.679688 143.304688 132.125 C 147.523438 124.089844 155.152344 121.425781 164.027344 122.480469 C 163.167969 124.089844 163.121094 124.976562 163.121094 124.976562 Z M 163.121094 124.972656 " fill-opacity="1" fill-rule="evenodd"/><g fill="#ffffff" fill-opacity="1"><g transform="translate(136.770718, 237.96225)"><g><path d="M 15.53125 -8.25 C 15.6875 -8.101562 15.765625 -7.925781 15.765625 -7.71875 L 15.765625 -0.3125 C 15.765625 -0.226562 15.734375 -0.15625 15.671875 -0.09375 C 15.609375 -0.03125 15.535156 0 15.453125 0 L 14.0625 0 C 13.976562 0 13.90625 -0.03125 13.84375 -0.09375 C 13.78125 -0.15625 13.75 -0.226562 13.75 -0.3125 L 13.75 -3.40625 L 2.640625 -3.40625 L 2.640625 -0.3125 C 2.640625 -0.226562 2.609375 -0.15625 2.546875 -0.09375 C 2.484375 -0.03125 2.410156 0 2.328125 0 L 0.9375 0 C 0.851562 0 0.78125 -0.03125 0.71875 -0.09375 C 0.65625 -0.15625 0.625 -0.226562 0.625 -0.3125 L 0.625 -7.71875 C 0.625 -7.925781 0.695312 -8.101562 0.84375 -8.25 L 2.671875 -10.125 C 2.835938 -10.28125 3.046875 -10.359375 3.296875 -10.359375 L 13.078125 -10.359375 C 13.328125 -10.359375 13.535156 -10.28125 13.703125 -10.125 Z M 2.640625 -5.203125 L 13.75 -5.203125 L 13.75 -7.171875 C 13.75 -7.304688 13.703125 -7.425781 13.609375 -7.53125 L 12.9375 -8.15625 L 12.8125 -8.25 C 12.757812 -8.289062 12.691406 -8.3125 12.609375 -8.3125 L 3.78125 -8.3125 C 3.675781 -8.3125 3.601562 -8.289062 3.5625 -8.25 L 3.4375 -8.15625 L 2.78125 -7.53125 C 2.6875 -7.425781 2.640625 -7.304688 2.640625 -7.171875 Z M 2.640625 -5.203125 "/></g></g></g><g fill="#ffffff" fill-opacity="1"><g transform="translate(157.311135, 237.96225)"><g><path d="M 0.625 -10.0625 C 0.625 -10.144531 0.65625 -10.210938 0.71875 -10.265625 C 0.78125 -10.328125 0.851562 -10.359375 0.9375 -10.359375 L 2.328125 -10.359375 C 2.410156 -10.359375 2.484375 -10.328125 2.546875 -10.265625 C 2.609375 -10.210938 2.640625 -10.144531 2.640625 -10.0625 L 2.640625 -3.40625 C 2.640625 -3.257812 2.6875 -3.140625 2.78125 -3.046875 L 3.78125 -2.109375 C 3.8125 -2.066406 3.878906 -2.046875 3.984375 -2.046875 L 12.40625 -2.046875 C 12.488281 -2.046875 12.554688 -2.066406 12.609375 -2.109375 L 13.609375 -3.046875 C 13.703125 -3.140625 13.75 -3.257812 13.75 -3.40625 L 13.75 -10.0625 C 13.75 -10.144531 13.78125 -10.210938 13.84375 -10.265625 C 13.90625 -10.328125 13.976562 -10.359375 14.0625 -10.359375 L 15.453125 -10.359375 C 15.535156 -10.359375 15.609375 -10.328125 15.671875 -10.265625 C 15.734375 -10.210938 15.765625 -10.144531 15.765625 -10.0625 L 15.765625 -2.546875 C 15.765625 -2.328125 15.6875 -2.148438 15.53125 -2.015625 L 13.5 -0.25 C 13.40625 -0.175781 13.3125 -0.113281 13.21875 -0.0625 C 13.125 -0.0195312 13.007812 0 12.875 0 L 3.5 0 C 3.363281 0 3.25 -0.0195312 3.15625 -0.0625 C 3.070312 -0.113281 2.976562 -0.175781 2.875 -0.25 L 0.84375 -2.015625 C 0.695312 -2.148438 0.625 -2.328125 0.625 -2.546875 Z M 0.625 -10.0625 "/></g></g></g><g fill="#ffffff" fill-opacity="1"><g transform="translate(177.851552, 237.96225)"><g><path d="M 18.34375 -10.359375 C 18.425781 -10.359375 18.5 -10.328125 18.5625 -10.265625 C 18.625 -10.210938 18.65625 -10.144531 18.65625 -10.0625 L 18.65625 -8.5 C 18.65625 -8.414062 18.625 -8.34375 18.5625 -8.28125 C 18.5 -8.21875 18.425781 -8.1875 18.34375 -8.1875 L 10.734375 -8.1875 L 10.734375 -0.3125 C 10.734375 -0.226562 10.703125 -0.15625 10.640625 -0.09375 C 10.578125 -0.03125 10.503906 0 10.421875 0 L 8.875 0 C 8.789062 0 8.71875 -0.03125 8.65625 -0.09375 C 8.59375 -0.15625 8.5625 -0.226562 8.5625 -0.3125 L 8.5625 -8.1875 L 0.9375 -8.1875 C 0.851562 -8.1875 0.78125 -8.21875 0.71875 -8.28125 C 0.65625 -8.34375 0.625 -8.414062 0.625 -8.5 L 0.625 -10.0625 C 0.625 -10.144531 0.65625 -10.210938 0.71875 -10.265625 C 0.78125 -10.328125 0.851562 -10.359375 0.9375 -10.359375 Z M 18.34375 -10.359375 "/></g></g></g><g fill="#ffffff" fill-opacity="1"><g transform="translate(201.293505, 237.96225)"><g><path d="M 0.625 -2.65625 L 0.625 -7.71875 C 0.625 -7.925781 0.695312 -8.101562 0.84375 -8.25 L 2.671875 -10.125 C 2.835938 -10.28125 3.046875 -10.359375 3.296875 -10.359375 L 13.078125 -10.359375 C 13.328125 -10.359375 13.535156 -10.28125 13.703125 -10.125 L 15.53125 -8.25 C 15.6875 -8.101562 15.765625 -7.925781 15.765625 -7.71875 L 15.765625 -2.65625 C 15.765625 -2.445312 15.6875 -2.265625 15.53125 -2.109375 L 13.703125 -0.25 C 13.535156 -0.0820312 13.328125 0 13.078125 0 L 3.296875 0 C 3.046875 0 2.835938 -0.0820312 2.671875 -0.25 L 0.84375 -2.109375 C 0.695312 -2.265625 0.625 -2.445312 0.625 -2.65625 Z M 2.640625 -3.1875 C 2.640625 -3.050781 2.6875 -2.9375 2.78125 -2.84375 L 3.4375 -2.21875 L 3.5625 -2.109375 C 3.601562 -2.066406 3.675781 -2.046875 3.78125 -2.046875 L 12.609375 -2.046875 C 12.691406 -2.046875 12.757812 -2.066406 12.8125 -2.109375 L 12.9375 -2.21875 L 13.609375 -2.84375 C 13.703125 -2.9375 13.75 -3.050781 13.75 -3.1875 L 13.75 -7.171875 C 13.75 -7.304688 13.703125 -7.425781 13.609375 -7.53125 L 12.9375 -8.15625 L 12.8125 -8.25 C 12.757812 -8.289062 12.691406 -8.3125 12.609375 -8.3125 L 3.78125 -8.3125 C 3.675781 -8.3125 3.601562 -8.289062 3.5625 -8.25 L 3.4375 -8.15625 L 2.78125 -7.53125 C 2.6875 -7.425781 2.640625 -7.304688 2.640625 -7.171875 Z M 2.640625 -3.1875 "/></g></g></g><g fill="#ffffff" fill-opacity="1"><g transform="translate(221.833922, 237.96225)"><g><path d="M 0.625 -6.46875 L 0.625 -7.921875 C 0.625 -8.035156 0.648438 -8.140625 0.703125 -8.234375 C 0.753906 -8.328125 0.8125 -8.398438 0.875 -8.453125 L 2.53125 -10.125 C 2.695312 -10.28125 2.894531 -10.359375 3.125 -10.359375 L 14.890625 -10.359375 C 14.972656 -10.359375 15.046875 -10.328125 15.109375 -10.265625 C 15.171875 -10.210938 15.203125 -10.144531 15.203125 -10.0625 L 15.203125 -8.625 C 15.203125 -8.539062 15.171875 -8.46875 15.109375 -8.40625 C 15.046875 -8.34375 14.972656 -8.3125 14.890625 -8.3125 L 3.71875 -8.3125 C 3.644531 -8.3125 3.539062 -8.257812 3.40625 -8.15625 L 2.9375 -7.734375 C 2.84375 -7.640625 2.796875 -7.519531 2.796875 -7.375 L 2.796875 -6.953125 C 2.796875 -6.878906 2.816406 -6.804688 2.859375 -6.734375 L 3.171875 -6.359375 C 3.265625 -6.265625 3.382812 -6.21875 3.53125 -6.21875 L 13.71875 -6.21875 C 13.832031 -6.21875 13.929688 -6.195312 14.015625 -6.15625 C 14.109375 -6.113281 14.191406 -6.0625 14.265625 -6 L 15.515625 -4.796875 C 15.679688 -4.648438 15.765625 -4.441406 15.765625 -4.171875 L 15.765625 -2.453125 C 15.765625 -2.347656 15.738281 -2.25 15.6875 -2.15625 C 15.632812 -2.0625 15.578125 -1.976562 15.515625 -1.90625 L 13.84375 -0.25 C 13.6875 -0.0820312 13.488281 0 13.25 0 L 1.28125 0 C 1.195312 0 1.125 -0.03125 1.0625 -0.09375 C 1 -0.15625 0.96875 -0.226562 0.96875 -0.3125 L 0.96875 -1.734375 C 0.96875 -1.816406 1 -1.890625 1.0625 -1.953125 C 1.125 -2.015625 1.195312 -2.046875 1.28125 -2.046875 L 12.671875 -2.046875 C 12.734375 -2.046875 12.835938 -2.101562 12.984375 -2.21875 L 13.4375 -2.640625 C 13.53125 -2.734375 13.578125 -2.847656 13.578125 -2.984375 L 13.578125 -3.484375 C 13.578125 -3.566406 13.554688 -3.632812 13.515625 -3.6875 L 13.203125 -4.0625 C 13.109375 -4.15625 12.992188 -4.203125 12.859375 -4.203125 L 2.859375 -4.203125 C 2.765625 -4.203125 2.664062 -4.226562 2.5625 -4.28125 C 2.46875 -4.332031 2.390625 -4.382812 2.328125 -4.4375 L 0.875 -5.84375 C 0.707031 -6.007812 0.625 -6.21875 0.625 -6.46875 Z M 0.625 -6.46875 "/></g></g></g><g fill="#ffffff" fill-opacity="1"><g transform="translate(101.031804, 216.648251)"><g><path d="M 27.25 -14.484375 C 27.519531 -14.210938 27.65625 -13.894531 27.65625 -13.53125 L 27.65625 -0.546875 C 27.65625 -0.398438 27.597656 -0.269531 27.484375 -0.15625 C 27.378906 -0.0507812 27.253906 0 27.109375 0 L 24.671875 0 C 24.523438 0 24.394531 -0.0507812 24.28125 -0.15625 C 24.175781 -0.269531 24.125 -0.398438 24.125 -0.546875 L 24.125 -5.96875 L 4.625 -5.96875 L 4.625 -0.546875 C 4.625 -0.398438 4.566406 -0.269531 4.453125 -0.15625 C 4.347656 -0.0507812 4.222656 0 4.078125 0 L 1.640625 0 C 1.492188 0 1.363281 -0.0507812 1.25 -0.15625 C 1.144531 -0.269531 1.09375 -0.398438 1.09375 -0.546875 L 1.09375 -13.53125 C 1.09375 -13.894531 1.222656 -14.210938 1.484375 -14.484375 L 4.6875 -17.765625 C 4.976562 -18.046875 5.34375 -18.1875 5.78125 -18.1875 L 22.96875 -18.1875 C 23.40625 -18.1875 23.765625 -18.046875 24.046875 -17.765625 Z M 4.625 -9.140625 L 24.125 -9.140625 L 24.125 -12.59375 C 24.125 -12.832031 24.039062 -13.035156 23.875 -13.203125 L 22.703125 -14.296875 L 22.484375 -14.484375 C 22.390625 -14.554688 22.269531 -14.59375 22.125 -14.59375 L 6.625 -14.59375 C 6.457031 -14.59375 6.335938 -14.554688 6.265625 -14.484375 L 6.046875 -14.296875 L 4.875 -13.203125 C 4.707031 -13.035156 4.625 -12.832031 4.625 -12.59375 Z M 4.625 -9.140625 "/></g></g></g><g fill="#ffffff" fill-opacity="1"><g transform="translate(137.091605, 216.648251)"><g><path d="M 1.09375 -17.65625 C 1.09375 -17.800781 1.144531 -17.925781 1.25 -18.03125 C 1.363281 -18.132812 1.492188 -18.1875 1.640625 -18.1875 L 4.359375 -18.1875 C 4.503906 -18.1875 4.628906 -18.132812 4.734375 -18.03125 C 4.847656 -17.925781 4.90625 -17.800781 4.90625 -17.65625 L 4.90625 -5.96875 C 4.90625 -5.726562 4.992188 -5.519531 5.171875 -5.34375 L 6.703125 -3.890625 C 6.890625 -3.703125 7.066406 -3.609375 7.234375 -3.609375 L 27.109375 -3.609375 C 27.253906 -3.609375 27.378906 -3.550781 27.484375 -3.4375 C 27.597656 -3.332031 27.65625 -3.207031 27.65625 -3.0625 L 27.65625 -0.546875 C 27.65625 -0.398438 27.597656 -0.269531 27.484375 -0.15625 C 27.378906 -0.0507812 27.253906 0 27.109375 0 L 5.859375 0 C 5.441406 0 5.085938 -0.144531 4.796875 -0.4375 L 1.53125 -3.71875 C 1.4375 -3.832031 1.335938 -3.972656 1.234375 -4.140625 C 1.140625 -4.316406 1.09375 -4.488281 1.09375 -4.65625 Z M 1.09375 -17.65625 "/></g></g></g><g fill="#ffffff" fill-opacity="1"><g transform="translate(173.151407, 216.648251)"><g><path d="M 27.140625 -14.59375 C 27.429688 -14.300781 27.578125 -13.9375 27.578125 -13.5 L 27.578125 -8.296875 C 27.578125 -8.128906 27.535156 -7.957031 27.453125 -7.78125 C 27.367188 -7.613281 27.265625 -7.46875 27.140625 -7.34375 L 23.875 -4.078125 C 23.582031 -3.785156 23.226562 -3.640625 22.8125 -3.640625 L 4.6875 -3.640625 L 4.6875 -0.65625 C 4.6875 -0.507812 4.628906 -0.378906 4.515625 -0.265625 C 4.410156 -0.160156 4.289062 -0.109375 4.15625 -0.109375 L 1.640625 -0.109375 C 1.492188 -0.109375 1.363281 -0.160156 1.25 -0.265625 C 1.144531 -0.378906 1.09375 -0.507812 1.09375 -0.65625 L 1.09375 -17.65625 C 1.09375 -17.800781 1.144531 -17.925781 1.25 -18.03125 C 1.363281 -18.132812 1.492188 -18.1875 1.640625 -18.1875 L 22.921875 -18.1875 C 23.285156 -18.1875 23.601562 -18.054688 23.875 -17.796875 Z M 23.765625 -9.25 L 23.765625 -12.65625 C 23.765625 -12.800781 23.726562 -12.925781 23.65625 -13.03125 L 23.46875 -13.25 L 22.375 -14.40625 C 22.207031 -14.582031 22.003906 -14.671875 21.765625 -14.671875 L 4.6875 -14.671875 L 4.6875 -7.234375 L 21.796875 -7.234375 C 21.960938 -7.234375 22.144531 -7.332031 22.34375 -7.53125 L 23.515625 -8.625 C 23.679688 -8.789062 23.765625 -9 23.765625 -9.25 Z M 23.765625 -9.25 "/></g></g></g><g fill="#ffffff" fill-opacity="1"><g transform="translate(209.138444, 216.648251)"><g><path d="M 27.109375 -18.1875 C 27.253906 -18.1875 27.378906 -18.132812 27.484375 -18.03125 C 27.597656 -17.925781 27.65625 -17.800781 27.65625 -17.65625 L 27.65625 -0.546875 C 27.65625 -0.398438 27.597656 -0.269531 27.484375 -0.15625 C 27.378906 -0.0507812 27.253906 0 27.109375 0 L 24.375 0 C 24.226562 0 24.097656 -0.0507812 23.984375 -0.15625 C 23.878906 -0.269531 23.828125 -0.398438 23.828125 -0.546875 L 23.828125 -7.53125 L 4.90625 -7.53125 L 4.90625 -0.546875 C 4.90625 -0.398438 4.847656 -0.269531 4.734375 -0.15625 C 4.628906 -0.0507812 4.503906 0 4.359375 0 L 1.640625 0 C 1.492188 0 1.363281 -0.0507812 1.25 -0.15625 C 1.144531 -0.269531 1.09375 -0.398438 1.09375 -0.546875 L 1.09375 -17.65625 C 1.09375 -17.800781 1.144531 -17.925781 1.25 -18.03125 C 1.363281 -18.132812 1.492188 -18.1875 1.640625 -18.1875 L 4.359375 -18.1875 C 4.503906 -18.1875 4.628906 -18.132812 4.734375 -18.03125 C 4.847656 -17.925781 4.90625 -17.800781 4.90625 -17.65625 L 4.90625 -11.140625 L 23.828125 -11.140625 L 23.828125 -17.65625 C 23.828125 -17.800781 23.878906 -17.925781 23.984375 -18.03125 C 24.097656 -18.132812 24.226562 -18.1875 24.375 -18.1875 Z M 27.109375 -18.1875 "/></g></g></g><g fill="#ffffff" fill-opacity="1"><g transform="translate(245.198246, 216.648251)"><g><path d="M 27.25 -14.484375 C 27.519531 -14.210938 27.65625 -13.894531 27.65625 -13.53125 L 27.65625 -0.546875 C 27.65625 -0.398438 27.597656 -0.269531 27.484375 -0.15625 C 27.378906 -0.0507812 27.253906 0 27.109375 0 L 24.671875 0 C 24.523438 0 24.394531 -0.0507812 24.28125 -0.15625 C 24.175781 -0.269531 24.125 -0.398438 24.125 -0.546875 L 24.125 -5.96875 L 4.625 -5.96875 L 4.625 -0.546875 C 4.625 -0.398438 4.566406 -0.269531 4.453125 -0.15625 C 4.347656 -0.0507812 4.222656 0 4.078125 0 L 1.640625 0 C 1.492188 0 1.363281 -0.0507812 1.25 -0.15625 C 1.144531 -0.269531 1.09375 -0.398438 1.09375 -0.546875 L 1.09375 -13.53125 C 1.09375 -13.894531 1.222656 -14.210938 1.484375 -14.484375 L 4.6875 -17.765625 C 4.976562 -18.046875 5.34375 -18.1875 5.78125 -18.1875 L 22.96875 -18.1875 C 23.40625 -18.1875 23.765625 -18.046875 24.046875 -17.765625 Z M 4.625 -9.140625 L 24.125 -9.140625 L 24.125 -12.59375 C 24.125 -12.832031 24.039062 -13.035156 23.875 -13.203125 L 22.703125 -14.296875 L 22.484375 -14.484375 C 22.390625 -14.554688 22.269531 -14.59375 22.125 -14.59375 L 6.625 -14.59375 C 6.457031 -14.59375 6.335938 -14.554688 6.265625 -14.484375 L 6.046875 -14.296875 L 4.875 -13.203125 C 4.707031 -13.035156 4.625 -12.832031 4.625 -12.59375 Z M 4.625 -9.140625 "/></g></g></g><g clip-path="url(#edc50dd708)"><g clip-path="url(#564a39c525)"><path fill="#b90808" d="M 103.179688 247.019531 L 271.800781 247.019531 L 271.800781 265.96875 L 103.179688 265.96875 Z M 103.179688 247.019531 " fill-opacity="1" fill-rule="nonzero"/></g></g><g clip-path="url(#913b14ff84)"><path fill="#b90808" d="M 331.726562 217.164062 C 331.347656 217.164062 330.976562 217.199219 330.605469 217.273438 C 330.234375 217.34375 329.875 217.449219 329.527344 217.589844 C 329.175781 217.730469 328.84375 217.902344 328.523438 218.105469 C 328.207031 218.308594 327.914062 218.542969 327.640625 218.800781 C 327.367188 219.0625 327.121094 219.347656 326.902344 219.652344 C 326.683594 219.960938 326.496094 220.285156 326.339844 220.628906 C 326.183594 220.972656 326.0625 221.324219 325.972656 221.691406 C 325.882812 222.058594 325.828125 222.429688 325.8125 222.804688 L 54.640625 222.804688 L 54.035156 223.414062 L -21.386719 298.886719 L -37.75 298.886719 L -37.75 315.585938 L -21.058594 315.585938 L -21.058594 299.402344 L 54.863281 223.402344 L 325.8125 223.402344 C 325.832031 223.785156 325.886719 224.164062 325.980469 224.539062 C 326.074219 224.910156 326.203125 225.269531 326.371094 225.621094 C 326.535156 225.96875 326.730469 226.296875 326.957031 226.605469 C 327.1875 226.917969 327.441406 227.203125 327.726562 227.460938 C 328.011719 227.722656 328.316406 227.953125 328.644531 228.152344 C 328.972656 228.351562 329.316406 228.519531 329.679688 228.652344 C 330.039062 228.785156 330.410156 228.882812 330.792969 228.945312 C 331.171875 229.003906 331.554688 229.027344 331.9375 229.015625 C 332.324219 229 332.703125 228.953125 333.078125 228.863281 C 333.453125 228.777344 333.816406 228.652344 334.167969 228.496094 C 334.515625 228.335938 334.847656 228.148438 335.164062 227.921875 C 335.476562 227.699219 335.765625 227.449219 336.03125 227.171875 C 336.296875 226.890625 336.53125 226.589844 336.738281 226.265625 C 336.945312 225.9375 337.117188 225.597656 337.257812 225.238281 C 337.394531 224.878906 337.5 224.511719 337.566406 224.132812 C 337.632812 223.753906 337.664062 223.371094 337.65625 222.984375 C 337.648438 222.601562 337.605469 222.21875 337.527344 221.84375 C 337.445312 221.46875 337.328125 221.101562 337.175781 220.75 C 337.023438 220.394531 336.839844 220.058594 336.621094 219.742188 C 336.402344 219.425781 336.15625 219.132812 335.882812 218.859375 C 335.609375 218.589844 335.308594 218.351562 334.988281 218.140625 C 334.667969 217.929688 334.328125 217.75 333.972656 217.605469 C 333.617188 217.457031 333.25 217.347656 332.871094 217.273438 C 332.492188 217.199219 332.113281 217.164062 331.726562 217.164062 Z M 331.726562 217.164062 " fill-opacity="1" fill-rule="nonzero"/></g><g clip-path="url(#5b3a07d9c9)"><path fill="#b90808" d="M 337.078125 210.691406 L 337.078125 210.582031 C 337.078125 210.390625 337.042969 210.203125 336.96875 210.027344 C 336.898438 209.847656 336.792969 209.691406 336.65625 209.554688 C 336.523438 209.417969 336.367188 209.3125 336.1875 209.238281 C 336.011719 209.164062 335.824219 209.125 335.632812 209.125 C 335.078125 209.128906 334.660156 209.367188 334.378906 209.847656 C 333.816406 209.734375 333.25 209.65625 332.675781 209.613281 C 332.105469 209.574219 331.535156 209.566406 330.960938 209.597656 C 330.386719 209.628906 329.820312 209.695312 329.257812 209.796875 C 328.691406 209.902344 328.136719 210.039062 327.589844 210.214844 C 327.042969 210.386719 326.511719 210.59375 325.988281 210.835938 C 325.46875 211.074219 324.964844 211.347656 324.480469 211.652344 C 323.996094 211.957031 323.53125 212.292969 323.085938 212.65625 C 322.644531 213.019531 322.226562 213.40625 321.832031 213.824219 C 321.4375 214.242188 321.070312 214.679688 320.734375 215.144531 C 320.394531 215.605469 320.085938 216.089844 319.808594 216.589844 C 319.53125 217.09375 319.289062 217.609375 319.078125 218.144531 C 318.867188 218.675781 318.6875 219.21875 318.546875 219.777344 C 318.402344 220.332031 318.296875 220.894531 318.226562 221.460938 C 318.152344 222.03125 318.117188 222.601562 318.121094 223.175781 C 318.121094 223.75 318.15625 224.320312 318.230469 224.886719 C 318.304688 225.457031 318.414062 226.019531 318.558594 226.574219 C 318.703125 227.128906 318.882812 227.671875 319.09375 228.203125 C 319.308594 228.734375 319.554688 229.253906 319.832031 229.753906 C 320.113281 230.253906 320.421875 230.734375 320.761719 231.195312 C 321.101562 231.660156 321.46875 232.097656 321.863281 232.511719 C 322.261719 232.925781 322.679688 233.316406 323.125 233.675781 C 323.570312 234.039062 324.035156 234.371094 324.523438 234.675781 C 325.007812 234.976562 325.511719 235.25 326.035156 235.488281 C 326.554688 235.726562 327.089844 235.929688 327.636719 236.101562 C 328.183594 236.273438 328.738281 236.410156 329.304688 236.511719 C 329.867188 236.613281 330.4375 236.675781 331.011719 236.707031 C 331.582031 236.734375 332.15625 236.726562 332.726562 236.683594 C 333.296875 236.640625 333.863281 236.558594 334.425781 236.445312 C 334.988281 236.328125 335.539062 236.179688 336.082031 235.992188 C 336.625 235.808594 337.152344 235.589844 337.667969 235.335938 C 338.183594 235.082031 338.679688 234.800781 339.160156 234.484375 C 339.636719 234.167969 340.09375 233.824219 340.527344 233.453125 C 340.964844 233.078125 341.375 232.679688 341.757812 232.253906 C 342.144531 231.828125 342.5 231.378906 342.828125 230.910156 C 343.15625 230.441406 343.453125 229.949219 343.71875 229.441406 C 343.984375 228.933594 344.214844 228.410156 344.414062 227.875 C 344.613281 227.335938 344.78125 226.789062 344.910156 226.230469 C 345.039062 225.671875 345.132812 225.109375 345.191406 224.539062 C 345.25 223.96875 345.273438 223.394531 345.261719 222.824219 C 345.246094 222.25 345.195312 221.679688 345.109375 221.113281 C 345.023438 220.546875 344.902344 219.988281 344.746094 219.433594 C 344.589844 218.882812 344.398438 218.34375 344.171875 217.816406 C 343.945312 217.289062 343.6875 216.777344 343.398438 216.285156 C 343.109375 215.789062 342.789062 215.316406 342.4375 214.863281 C 342.089844 214.40625 341.710938 213.976562 341.308594 213.570312 C 340.902344 213.164062 340.472656 212.785156 340.019531 212.433594 C 339.566406 212.082031 339.09375 211.761719 338.601562 211.46875 C 338.109375 211.175781 337.597656 210.917969 337.070312 210.691406 Z M 331.726562 236.371094 C 330.855469 236.371094 329.996094 236.289062 329.144531 236.117188 C 328.289062 235.949219 327.460938 235.695312 326.65625 235.363281 C 325.855469 235.03125 325.089844 234.625 324.367188 234.140625 C 323.644531 233.65625 322.976562 233.109375 322.359375 232.492188 C 321.746094 231.878906 321.195312 231.210938 320.714844 230.484375 C 320.230469 229.761719 319.824219 229 319.488281 228.195312 C 319.15625 227.394531 318.90625 226.566406 318.738281 225.710938 C 318.566406 224.859375 318.480469 223.996094 318.480469 223.128906 C 318.480469 222.257812 318.566406 221.398438 318.738281 220.542969 C 318.90625 219.691406 319.15625 218.863281 319.488281 218.058594 C 319.824219 217.257812 320.230469 216.492188 320.714844 215.769531 C 321.195312 215.046875 321.746094 214.378906 322.359375 213.761719 C 322.976562 213.148438 323.644531 212.597656 324.367188 212.117188 C 325.089844 211.632812 325.855469 211.222656 326.65625 210.890625 C 327.460938 210.558594 328.289062 210.308594 329.144531 210.136719 C 329.996094 209.96875 330.855469 209.882812 331.726562 209.882812 C 332.578125 209.882812 333.425781 209.964844 334.261719 210.125 C 334.214844 210.273438 334.1875 210.425781 334.191406 210.582031 C 334.1875 210.941406 334.300781 211.261719 334.539062 211.535156 C 334.773438 211.808594 335.070312 211.972656 335.429688 212.023438 C 335.785156 212.074219 336.117188 212.003906 336.421875 211.804688 C 336.722656 211.609375 336.925781 211.335938 337.023438 210.988281 C 337.714844 211.289062 338.378906 211.648438 339.007812 212.0625 C 339.640625 212.476562 340.230469 212.945312 340.78125 213.460938 C 341.332031 213.976562 341.835938 214.535156 342.292969 215.136719 C 342.746094 215.738281 343.148438 216.375 343.496094 217.046875 C 343.84375 217.71875 344.128906 218.414062 344.355469 219.132812 C 344.585938 219.855469 344.75 220.589844 344.851562 221.335938 C 344.953125 222.085938 344.992188 222.835938 344.964844 223.59375 C 344.9375 224.347656 344.847656 225.09375 344.695312 225.832031 C 344.539062 226.574219 344.324219 227.292969 344.046875 227.996094 C 343.769531 228.699219 343.433594 229.371094 343.039062 230.015625 C 342.648438 230.660156 342.203125 231.269531 341.707031 231.835938 C 341.210938 232.40625 340.667969 232.929688 340.082031 233.40625 C 339.496094 233.882812 338.875 234.304688 338.214844 234.675781 C 337.558594 235.046875 336.871094 235.355469 336.160156 235.609375 C 335.449219 235.863281 334.71875 236.050781 333.976562 236.179688 C 333.230469 236.308594 332.480469 236.371094 331.726562 236.371094 Z M 331.726562 236.371094 " fill-opacity="1" fill-rule="nonzero"/></g><g clip-path="url(#0e91ec2a2f)"><path fill="#f6dbbc" d="M 192.910156 253.820312 L 189.167969 253.277344 L 187.496094 249.886719 L 185.824219 253.277344 L 182.082031 253.820312 L 184.789062 256.457031 L 184.148438 260.183594 L 187.496094 258.425781 L 190.839844 260.183594 L 190.203125 256.457031 Z M 192.910156 253.820312 " fill-opacity="1" fill-rule="nonzero"/></g><g clip-path="url(#2771ee33db)"><path fill="#f6dbbc" d="M 169.488281 252.410156 L 167.082031 252.0625 L 166.007812 249.882812 L 164.933594 252.0625 L 162.53125 252.410156 L 164.269531 254.105469 L 163.859375 256.5 L 166.007812 255.371094 L 168.15625 256.5 L 167.746094 254.105469 Z M 169.488281 252.410156 " fill-opacity="1" fill-rule="nonzero"/></g><g clip-path="url(#8b237221f7)"><path fill="#f6dbbc" d="M 212.457031 252.410156 L 210.054688 252.0625 L 208.980469 249.882812 L 207.90625 252.0625 L 205.503906 252.410156 L 207.242188 254.105469 L 206.832031 256.5 L 208.980469 255.371094 L 211.128906 256.5 L 210.71875 254.105469 Z M 212.457031 252.410156 " fill-opacity="1" fill-rule="nonzero"/></g><g clip-path="url(#8f4dc190e8)"><g clip-path="url(#4f8177ceeb)"><path fill="#ffffff" d="M 189.898438 135.71875 L 189.898438 127.558594 L 187.378906 125.039062 L 187.378906 125.023438 L 187.363281 125.023438 L 187.324219 124.984375 L 187.324219 125.023438 L 179.164062 125.023438 L 179.164062 133.183594 L 179.128906 133.183594 L 179.164062 133.222656 L 179.164062 133.238281 L 179.179688 133.238281 L 181.699219 135.757812 L 189.859375 135.757812 L 189.898438 135.792969 L 189.898438 135.757812 L 189.9375 135.757812 Z M 181.722656 135.703125 L 179.257812 133.234375 L 187.339844 133.234375 L 189.808594 135.703125 Z M 189.84375 135.664062 L 187.378906 133.199219 L 187.378906 125.113281 L 189.84375 127.578125 Z M 189.84375 135.664062 " fill-opacity="1" fill-rule="nonzero"/></g></g><g clip-path="url(#ab6ba56f82)"><g clip-path="url(#5c45b5001f)"><path fill="#b90808" d="M 179.207031 126.554688 L 187.09375 126.554688 L 187.09375 134.441406 L 179.207031 134.441406 Z M 179.207031 126.554688 " fill-opacity="1" fill-rule="nonzero"/><path fill="#b90808" d="M 189.847656 137.195312 L 176.453125 137.195312 L 176.453125 123.800781 L 189.847656 123.800781 Z M 176.632812 137.019531 L 189.671875 137.019531 L 189.671875 123.976562 L 176.632812 123.976562 Z M 176.632812 137.019531 " fill-opacity="1" fill-rule="nonzero"/></g></g></svg>